<?xml version="1.0" encoding="utf-8"?>
<!-- Generator: Adobe Illustrator 19.2.1, SVG Export Plug-In . SVG Version: 6.00 Build 0)  -->
<svg version="1.1" id="Layer_1" xmlns="http://www.w3.org/2000/svg" xmlns:xlink="http://www.w3.org/1999/xlink" x="0px" y="0px"
	 viewBox="0 0 300 300" style="enable-background:new 0 0 300 300;" xml:space="preserve">
<style type="text/css">
	.st0{fill:#262E3E;}
	.st1{fill:#FFFFFF;}
	.st2{fill:#87AB3F;}
</style>
<g>
	<path class="st0" d="M211,4.9c4.1,5.1,9.1,9.4,13.7,14c11,11.1,22,22.1,33.1,33.1c1.4,1.4,1.9,2.8,1.9,4.7c0,57.6,0,115.1,0,172.7
		c0,21.7,0,43.4,0.1,65.1c0,2.2-0.5,2.8-2.8,2.8c-70.6-0.1-141.2-0.1-211.8,0c-2.5,0-2.8-0.8-2.8-3c0.1-75.3,0-150.7,0-226
		c0-20.2,0-40.3,0-60.5c0-0.9,0.1-1.9,0.2-2.8C98.7,4.9,154.8,4.9,211,4.9z M53.8,151L53.8,151c0,17.2,0,34.4,0,51.7
		c0,26.9,0,53.8-0.1,80.8c0,2,0.6,2.5,2.5,2.5c5.1-0.1,10.3-0.1,15.4-0.1c57.8,0,115.7,0,173.5,0.1c2.7,0,3.1-0.8,3-3.2
		c-0.1-9.3-0.1-18.6-0.1-28c0-63.4,0-126.7,0.1-190.1c0-2.2-0.7-2.6-2.7-2.6c-13.4,0.1-26.8,0-40.2,0.1c-2.5,0-2.9-0.7-2.9-3
		c0.1-13.2,0-26.4,0.1-39.7c0-2.6-0.7-3.2-3.2-3.2c-47.4,0.1-94.8,0.1-142.1,0c-2.8,0-3.4,0.7-3.4,3.4
		C53.8,63.5,53.8,107.2,53.8,151z M238.6,50.7c-8.2-8.3-16.5-16.7-24.8-25.1c0,6.6,0,13.5,0,20.5c0,4.6,0,4.6,4.6,4.6
		C225.4,50.7,232.4,50.7,238.6,50.7z"/>
	<path class="st1" d="M238.6,50.7c-6.2,0-13.2,0-20.2,0c-4.6,0-4.6,0-4.6-4.6c0-6.9,0-13.9,0-20.5C222.1,34,230.5,42.4,238.6,50.7z"
		/>
	<path class="st0" d="M77.8,165.8c0-24.4,0-48.7-0.1-73.1c0-2.4,0.4-3.3,3.2-3.3c46.7,0.1,93.4,0.1,140.2,0c2.4,0,3.2,0.4,3.2,3.1
		c-0.1,26.2-0.1,52.3-0.1,78.5c0,22.7-0.1,45.5,0.1,68.2c0,2.7-0.9,3.2-3.3,3.2c-46.8-0.1-93.6-0.1-140.4,0c-2.4,0-2.7-0.9-2.7-2.9
		C77.8,214.9,77.8,190.3,77.8,165.8z M151,100.9c-19.6,0-39.2,0-58.7-0.1c-2.4,0-3.1,0.6-3,3c0.2,3.5,0.3,7,0,10.5
		c-0.2,2.8,0.9,3.2,3.4,3.2c15.7-0.1,31.4-0.1,47.1-0.1c23.5,0,47,0,70.4,0.1c2.2,0,2.8-0.6,2.7-2.7c-0.2-3.4,0-6.8,0-10.3
		c0-3.7,0-3.7-3.6-3.7C189.7,100.9,170.4,100.9,151,100.9z M131.4,174.1c13.3,0,26.6,0,39.9,0c1.9,0,2.6-0.4,2.6-2.4
		c-0.2-4.1-0.1-8.2,0-12.3c0-1.4-0.3-2-1.9-2c-26.9,0.1-53.8,0.1-80.7,0c-1.8,0-2,0.7-2,2.2c0.1,4,0.1,8,0,12
		c-0.1,2,0.6,2.5,2.5,2.5C105,174.1,118.2,174.1,131.4,174.1z M131.6,230.8C131.6,230.8,131.6,230.8,131.6,230.8
		c13.1,0,26.3-0.1,39.4,0c2.1,0,3.1-0.3,2.9-2.7c-0.2-3.9-0.2-7.8,0-11.7c0.1-2.1-0.6-2.5-2.6-2.5c-12.6,0.1-25.1,0-37.7,0
		c-14,0-28,0-41.9,0.1c-0.9,0-2.5-0.7-2.4,1.3c0,4.3,0.1,8.6-0.1,12.8c-0.1,2.2,0.6,2.7,2.7,2.6
		C105.2,230.8,118.4,230.8,131.6,230.8z M131.3,146c13.4,0,26.8,0,40.3,0c1.9,0,2.4-0.5,2.3-2.3c-0.2-3.9-0.2-7.8,0-11.7
		c0.1-2.2-0.6-2.6-2.7-2.6c-13.8,0.1-27.6,0-41.4,0c-12.7,0-25.3,0.1-38-0.1c-2.2,0-2.7,0.6-2.6,2.7c0.2,3.8,0.2,7.6,0,11.4
		c-0.1,2.2,0.6,2.6,2.7,2.6C105,145.9,118.2,146,131.3,146z M131.3,202.5c13.4,0,26.8,0,40.2,0c1.8,0,2.5-0.3,2.4-2.3
		c-0.2-4.1-0.1-8.2,0-12.3c0-1.5-0.3-2.1-2-2.1c-26.9,0-53.8,0-80.7,0c-1.8,0-2,0.7-2,2.2c0.1,3.8,0.2,7.6,0,11.4
		c-0.1,2.4,0.4,3.2,3,3.2C105.3,202.4,118.3,202.5,131.3,202.5z M198.8,145.8C198.8,145.8,198.8,145.7,198.8,145.8
		c3.9,0,7.8-0.1,11.7,0c1.4,0,2-0.2,2-1.8c-0.1-4.1-0.1-8.2,0-12.3c0-1.6-0.4-2.1-2.1-2.1c-7.6,0.1-15.2,0.1-22.8,0
		c-1.5,0-2.2,0.2-2.2,2c0.1,4.1,0.1,8.2,0,12.3c-0.1,1.8,0.7,2,2.2,2C191.4,145.7,195.1,145.8,198.8,145.8z M198.9,173.8
		c3.9,0,7.8-0.1,11.7,0c1.4,0,2-0.3,2-1.9c-0.1-4.1-0.1-8.2,0-12.2c0-1.5-0.5-1.9-1.9-1.9c-7.7,0.1-15.4,0.1-23.1,0
		c-1.4,0-2.1,0.2-2,1.9c0.1,4.1,0.1,8.2,0,12.2c0,1.5,0.5,2,2,1.9C191.3,173.7,195.1,173.8,198.9,173.8z M198.9,202.3
		c3.9,0,7.8-0.1,11.7,0c1.4,0,2-0.3,2-1.8c-0.1-4.2-0.1-8.4,0-12.5c0-1.6-0.6-1.8-2-1.8c-7.7,0.1-15.4,0.1-23.1,0
		c-1.7,0-2,0.7-2,2.2c0.1,4,0.1,8,0,12c-0.1,1.9,0.7,2.2,2.3,2.1C191.5,202.2,195.2,202.3,198.9,202.3z M198.9,230.9
		c3.9,0,7.8-0.1,11.7,0c1.4,0,2-0.3,2-1.8c-0.1-4.2-0.1-8.4,0-12.5c0-1.6-0.6-1.8-2-1.8c-7.7,0.1-15.4,0.1-23.1,0
		c-1.7,0-2,0.7-2,2.2c0.1,4,0.1,8,0,12c-0.1,1.9,0.7,2.2,2.3,2.1C191.5,230.9,195.2,230.9,198.9,230.9z"/>
	<path class="st0" d="M131.5,70c16.8,0,33.7,0,50.5,0c2.2,0,3.4,0.3,3,2.9c-0.4,2.8,1.2,6.6-0.6,8.2c-1.6,1.4-5.2,0.5-8,0.5
		c-32,0-63.9,0-95.9,0.1c-2.1,0-2.9-0.4-2.7-2.6c0.3-2.9-1.3-6.8,0.6-8.4C80,69,83.8,70,86.7,70C101.6,70,116.5,70,131.5,70
		C131.5,70,131.5,70,131.5,70z"/>
	<path class="st0" d="M102.9,62.2c-7.5,0-15-0.1-22.5,0.1c-2.2,0-2.7-0.7-2.6-2.7c0.2-2.3,0.1-4.6,0-6.8c-0.1-1.4,0.3-2,1.9-2
		c15.5,0.1,31,0,46.5,0c1.3,0,2,0.2,1.9,1.7c-0.1,3.1,0.9,7-0.5,9.1c-1.3,1.9-5.5,0.6-8.4,0.6C113.7,62.2,108.3,62.2,102.9,62.2z"/>
	<path class="st0" d="M199.3,250.4c7.5,0,15,0,22.5,0c1.7,0,2.7,0.2,2.4,2.3c-0.3,3,1.2,7-0.6,8.7c-1.6,1.5-5.6,0.5-8.5,0.5
		c-12.8,0-25.7,0-38.5,0.1c-2.2,0-2.8-0.6-2.6-2.7c0.2-2.1,0.2-4.2,0-6.3c-0.2-2,0.5-2.6,2.5-2.6C184,250.5,191.6,250.4,199.3,250.4
		z"/>
	<path class="st2" d="M151,100.9c19.4,0,38.8,0,58.2,0c3.6,0,3.6,0,3.6,3.7c0,3.4-0.1,6.9,0,10.3c0.1,2.1-0.5,2.7-2.7,2.7
		c-23.5-0.1-47-0.1-70.4-0.1c-15.7,0-31.4,0-47.1,0.1c-2.5,0-3.6-0.4-3.4-3.2c0.3-3.5,0.2-7,0-10.5c-0.1-2.4,0.6-3,3-3
		C111.8,101,131.4,100.9,151,100.9z"/>
	<path class="st1" d="M131.4,174.1c-13.2,0-26.4,0-39.7,0c-2,0-2.6-0.5-2.5-2.5c0.2-4,0.1-8,0-12c0-1.5,0.2-2.2,2-2.2
		c26.9,0,53.8,0,80.7,0c1.6,0,1.9,0.5,1.9,2c-0.1,4.1-0.2,8.2,0,12.3c0.1,2.1-0.6,2.5-2.6,2.4C158,174.1,144.7,174.1,131.4,174.1z"
		/>
	<path class="st1" d="M131.6,230.8c-13.2,0-26.4,0-39.7,0c-2.1,0-2.8-0.4-2.7-2.6c0.2-4.3,0.1-8.6,0.1-12.8c0-2,1.5-1.3,2.4-1.3
		c14,0,28,0,41.9-0.1c12.6,0,25.1,0,37.7,0c1.9,0,2.7,0.4,2.6,2.5c-0.2,3.9-0.2,7.8,0,11.7c0.1,2.5-0.9,2.7-2.9,2.7
		C157.9,230.8,144.7,230.8,131.6,230.8C131.6,230.8,131.6,230.8,131.6,230.8z"/>
	<path class="st1" d="M131.3,146c-13.1,0-26.3,0-39.4,0c-2.1,0-2.8-0.4-2.7-2.6c0.2-3.8,0.2-7.6,0-11.4c-0.1-2.1,0.4-2.7,2.6-2.7
		c12.7,0.1,25.3,0.1,38,0.1c13.8,0,27.6,0.1,41.4,0c2.1,0,2.8,0.4,2.7,2.6c-0.2,3.9-0.1,7.8,0,11.7c0.1,1.9-0.5,2.4-2.3,2.3
		C158.1,145.9,144.7,146,131.3,146z"/>
	<path class="st1" d="M131.3,202.5c-13,0-26-0.1-39.1,0.1c-2.6,0-3.1-0.8-3-3.2c0.2-3.8,0.1-7.6,0-11.4c0-1.5,0.2-2.2,2-2.2
		c26.9,0.1,53.8,0.1,80.7,0c1.7,0,2,0.6,2,2.1c-0.1,4.1-0.1,8.2,0,12.3c0.1,2-0.6,2.3-2.4,2.3C158.1,202.5,144.7,202.5,131.3,202.5z
		"/>
	<path class="st2" d="M198.8,145.8c-3.7,0-7.4-0.1-11.1,0c-1.5,0-2.2-0.2-2.2-2c0.1-4.1,0.1-8.2,0-12.3c-0.1-1.7,0.6-2,2.2-2
		c7.6,0.1,15.2,0.1,22.8,0c1.6,0,2.1,0.5,2.1,2.1c-0.1,4.1-0.1,8.2,0,12.3c0,1.6-0.6,1.9-2,1.8C206.6,145.7,202.7,145.7,198.8,145.8
		C198.8,145.7,198.8,145.8,198.8,145.8z"/>
	<path class="st2" d="M198.9,173.8c-3.8,0-7.6-0.1-11.4,0c-1.5,0-2-0.4-2-1.9c0.1-4.1,0.1-8.2,0-12.2c0-1.6,0.6-1.9,2-1.9
		c7.7,0,15.4,0.1,23.1,0c1.4,0,2,0.4,1.9,1.9c-0.1,4.1-0.1,8.2,0,12.2c0,1.6-0.5,1.9-2,1.9C206.7,173.7,202.8,173.8,198.9,173.8z"/>
	<path class="st2" d="M198.9,202.3c-3.7,0-7.4-0.1-11.1,0c-1.6,0-2.4-0.2-2.3-2.1c0.2-4,0.1-8,0-12c0-1.5,0.2-2.2,2-2.2
		c7.7,0.1,15.4,0.1,23.1,0c1.4,0,2,0.2,2,1.8c-0.1,4.2-0.1,8.4,0,12.5c0,1.6-0.6,1.9-2,1.8C206.7,202.2,202.8,202.3,198.9,202.3z"/>
	<path class="st2" d="M198.9,230.9c-3.7,0-7.4-0.1-11.1,0c-1.6,0-2.4-0.2-2.3-2.1c0.2-4,0.1-8,0-12c0-1.5,0.2-2.2,2-2.2
		c7.7,0.1,15.4,0.1,23.1,0c1.4,0,2,0.2,2,1.8c-0.1,4.2-0.1,8.4,0,12.5c0,1.6-0.6,1.9-2,1.8C206.7,230.9,202.8,230.9,198.9,230.9z"/>
</g>
</svg>
