<?xml version="1.0" encoding="utf-8"?>
<!-- Generator: Adobe Illustrator 19.2.1, SVG Export Plug-In . SVG Version: 6.00 Build 0)  -->
<svg version="1.1" id="Layer_1" xmlns="http://www.w3.org/2000/svg" xmlns:xlink="http://www.w3.org/1999/xlink" x="0px" y="0px"
	 viewBox="0 0 300 300" style="enable-background:new 0 0 300 300;" xml:space="preserve">
<style type="text/css">
	.st0{fill:#FFFFFF;}
	.st1{fill:#262E3C;}
	.st2{fill:#87AB3F;}
</style>
<g>
	<path class="st0" d="M50.7,162.4C50.7,162.4,50.7,162.4,50.7,162.4c0-9.8,0.1-19.7,0-29.5c0-2.4,1.1-5.8-0.5-7.1
		c-1.5-1.2-4.7-0.3-7.2-0.5c-2.4-0.3-3,0.5-3,2.9c0.1,22,0,43.9,0,65.9c0,5.1,0,5.1,5.3,5.1c1,0,1.9-0.1,2.9,0
		c2,0.3,2.6-0.4,2.5-2.5C50.7,185.4,50.7,173.9,50.7,162.4z M45.3,44.6C45.3,44.6,45.3,44.6,45.3,44.6c-2.3,0-4.6,0-6.9,0
		c-2.4,0-4.8,0.1-7.2,0c-1.4-0.1-1.8,0.4-1.8,1.8c0.1,3.4,0,6.9,0,10.3c0,2.6-0.9,6,0.4,7.5c1.5,1.7,5,0.3,7.6,0.6
		c1.9,0.2,2.6-0.4,2.6-2.5c0-7,0-6.9,7.1-7.1c2.6-0.1,3.9,0.4,3.5,3.4c-0.2,1.5,0,3.1-0.1,4.6c-0.1,1.2,0.3,1.7,1.6,1.6
		c2.3-0.1,4.6-0.1,6.9,0c1.7,0.1,2.1-0.5,2-2.1c-0.1-5.2-0.1-10.5,0-15.7c0.1-2-0.7-2.3-2.4-2.3C54.3,44.7,49.8,44.6,45.3,44.6z
		 M249.1,43.5c5.2,0,10.5-0.1,15.7,0c1.7,0,2.4-0.3,2.3-2.2c-0.2-2-0.2-4,0-6c0.1-1.9-0.5-2.4-2.3-2.4c-8.5,0.1-17,0-25.4,0.1
		c-2.6,0-6.2-1.2-7.6,0.5c-1.3,1.6-0.3,5.1-0.5,7.7c-0.1,1.7,0.4,2.3,2.2,2.3C238.6,43.4,243.9,43.5,249.1,43.5z M243.9,80.8
		c0,5.5,0,5.5,5.4,5.6c5.2,0,5.2,0,5.2-5.2c-0.1-5.5-0.1-5.5-5.6-5.5C243.9,75.7,243.9,75.7,243.9,80.8z M134,59.4
		c0-5.3,0-5.3-5.3-5.3c-5.2,0-5.2,0-5.2,5.1c0,5.4,0,5.4,5.4,5.4C134,64.6,134,64.6,134,59.4z M150.2,54.2c-5.5,0-5.5,0-5.5,5.4
		c0,5.1,0,5.1,5,5.1c5.5,0,5.5,0,5.5-5.4C155.1,54.2,155.1,54.2,150.2,54.2z M165.8,59.2c0,5.5,0,5.5,5.5,5.5c5,0,5,0,5-5
		c0-5.5,0-5.5-5.5-5.5C165.8,54.2,165.8,54.2,165.8,59.2z"/>
	<path class="st1" d="M286,217.7c0.1-5.1,0.2-10.1,0.2-15.2c0-30.8,0-61.5,0-92.3c0-2.5-0.5-3.3-3.2-3.3c-22.5,0.1-45.1,0-67.6,0.1
		c-2.6,0-3.4-0.7-3.1-3.2c0.3-2.4-1-5.6,0.6-7.1c1.5-1.4,4.6-0.4,6.9-0.4c21.2,0,42.4-0.1,63.6,0c2.3,0,2.9-0.6,2.8-2.9
		c-0.1-7.3,0-14.5-0.1-21.8c0-5.2-1.9-7-7.1-7c-20.2,0-40.3,0-60.5,0c-1.8,0-2.9-0.6-4.1-1.9c-11.1-12.8-22.4-25.6-33.5-38.4
		c-1.2-1.4-2.5-2-4.4-2c-17.8,0.1-35.5,0.1-53.3,0c-1.8,0-3,0.5-4.2,1.8C108,37,96.8,49.7,85.7,62.4c-1.4,1.6-2.7,2.6-4.8,2.2
		c-0.2,0-0.4,0-0.6,0c-2.6-0.1-6,1.1-7.4-0.4c-1.7-1.8-0.3-5.3-0.5-8c-0.1-1.6,0.4-2.4,2-2.1c3.5,0.7,5.5-1.1,7.7-3.6
		c10.7-12.5,21.6-24.7,32.4-37.1c1-1.1,1.9-1.6,3.4-1.6c21.4,0.1,42.8,0.1,64.2,0c1.7,0,2.6,0.8,3.5,1.9
		c11.2,12.8,22.4,25.6,33.5,38.4c1.3,1.5,2.7,2.1,4.6,2.1c17.4-0.1,34.8,0.3,52.2-0.2c10.1-0.3,17.4,2.8,20.7,12.9
		c0,61.9,0,123.8,0,185.7c-3.5,10.1-10.8,12.9-20.9,12.8c-30.7-0.4-61.3-0.1-92-0.1c-54.5,0-109.1,0-163.6,0
		c-4.1,0-7.9-1.1-11.2-3.7c-2.9-2.4-4.4-5.6-5.8-8.9c0-62.1,0-124.2,0-186.3c1.2-1,1.2-2.7,2-4c2.6-4.4,6.3-7,11.3-8
		c1.8-0.4,3-0.1,2.7,2.2c-0.2,1.2,0,2.5,0,3.7c0.1,2.4,0.4,4.6-2.9,5.5c-2.1,0.6-2.5,3-2.5,5.1c0,7.8,0,15.7-0.1,23.5
		c0,2.4,1.5,2,2.8,2c19.6,0,39.1,0,58.7,0c3.4,0,6.9,0.1,10.3-0.1c1.6,0,2.3,0.4,2.2,2.1c-0.2,2.8,0.9,6.3-0.5,8.1
		c-1.5,1.8-5.2,0.6-7.9,0.6c-20.9,0-41.8,0-62.7,0c-1.9,0-2.9,0.1-2.9,2.5c0.1,35.5,0.1,71,0.1,106.6c0,0.6,0.1,1.1,0.2,1.7
		c-0.1,9.5-0.2,19.1-0.2,28.6c0,6.9,1.6,8.5,8.4,8.5c85.3,0,170.5,0,255.8,0c0.9,0,1.7,0,2.6,0c3.5-0.3,5.7-2.1,5.7-5.6
		C286.2,238.7,286.4,228.2,286,217.7z"/>
	<path class="st2" d="M286,217.7c0.5,10.5,0.2,21,0.1,31.5c0,3.4-2.2,5.3-5.7,5.6c-0.9,0.1-1.7,0-2.6,0c-85.3,0-170.5,0-255.8,0
		c-6.8,0-8.4-1.6-8.4-8.5c0-9.5,0.1-19.1,0.2-28.6c26,0,51.9,0,77.9,0c1.2,0,2.5-0.1,3.7-0.1c1.9,1.8,3.8,3.7,5.7,5.5
		c21,19.5,53.6,24.4,79.4,12c9.1-4.3,16.8-10.3,23.7-17.6c22.6,0,45.2,0,67.9,0.1C276.8,217.7,281.4,217.7,286,217.7z"/>
	<path class="st1" d="M204.4,217.6c-6.9,7.2-14.7,13.2-23.7,17.6c-25.9,12.3-58.4,7.5-79.4-12c-1.9-1.8-3.8-3.7-5.7-5.5
		c-8.3-9.8-14.3-20.7-16.7-33.3c-5.1-26.6,2.1-49.5,21.6-68.2c13.7-13.1,30.4-19.6,49.3-19.6c20.2,0,37.8,7.1,51.9,21.6
		c16.4,16.7,23.3,37,20.5,60.4C220.4,193.3,214,206.2,204.4,217.6z M212.2,169.2c0.2-34-27.7-62-62-62.3
		c-34.2-0.3-62.2,27.5-62.6,62c-0.4,34,27.7,62.3,62.2,62.4C183.4,231.5,211.7,204.9,212.2,169.2z"/>
	<path class="st1" d="M50.7,162.4c0,11.5-0.1,22.9,0,34.4c0,2-0.6,2.8-2.5,2.5c-0.9-0.1-1.9,0-2.9,0c-5.3,0-5.3,0-5.3-5.1
		c0-22,0.1-43.9,0-65.9c0-2.4,0.6-3.2,3-2.9c2.4,0.3,5.7-0.7,7.2,0.5c1.6,1.3,0.5,4.7,0.5,7.1C50.8,142.8,50.8,152.6,50.7,162.4
		C50.7,162.4,50.7,162.4,50.7,162.4z"/>
	<path class="st1" d="M45.3,44.6c4.5,0,9,0.1,13.4,0c1.8,0,2.5,0.3,2.4,2.3c-0.1,5.2-0.1,10.5,0,15.7c0,1.6-0.4,2.2-2,2.1
		c-2.3-0.1-4.6-0.1-6.9,0c-1.3,0-1.7-0.4-1.6-1.6c0.1-1.5-0.2-3.1,0.1-4.6c0.4-2.9-0.8-3.4-3.5-3.4c-7.1,0.2-7.2,0.1-7.1,7.1
		c0,2.1-0.6,2.7-2.6,2.5c-2.6-0.3-6.1,1.1-7.6-0.6c-1.3-1.5-0.4-4.9-0.4-7.5c0-3.4,0.1-6.9,0-10.3c0-1.4,0.4-1.8,1.8-1.8
		c2.4,0.1,4.8,0,7.2,0C40.8,44.6,43.1,44.6,45.3,44.6C45.3,44.6,45.3,44.6,45.3,44.6z"/>
	<path class="st1" d="M249.1,43.5c-5.2,0-10.5-0.1-15.7,0c-1.8,0-2.3-0.5-2.2-2.3c0.2-2.6-0.8-6.1,0.5-7.7c1.4-1.7,5-0.5,7.6-0.5
		c8.5-0.1,17,0,25.4-0.1c1.9,0,2.5,0.5,2.3,2.4c-0.2,2-0.2,4,0,6c0.2,1.9-0.6,2.2-2.3,2.2C259.6,43.5,254.3,43.5,249.1,43.5z"/>
	<path class="st1" d="M243.9,80.8c0-5.1,0-5.1,5-5.1c5.5,0,5.5,0,5.6,5.5c0.1,5.2,0.1,5.2-5.2,5.2C243.9,86.3,243.9,86.3,243.9,80.8
		z"/>
	<path class="st1" d="M134,59.4c0,5.2,0,5.2-5.1,5.2c-5.4,0-5.4,0-5.4-5.4c0-5.1,0-5.1,5.2-5.1C134.1,54.1,134.1,54.1,134,59.4z"/>
	<path class="st1" d="M150.2,54.2c5,0,5,0,5,5.1c0,5.4,0,5.4-5.5,5.4c-5,0-5,0-5-5.1C144.7,54.2,144.7,54.2,150.2,54.2z"/>
	<path class="st1" d="M165.8,59.2c0-5,0-5,5.1-5c5.5,0,5.5,0,5.5,5.5c0,5,0,5-5,5C165.8,64.7,165.8,64.7,165.8,59.2z"/>
	<path class="st0" d="M212.2,169.2c-0.6,35.7-28.8,62.2-62.4,62.1c-34.5-0.1-62.6-28.4-62.2-62.4c0.4-34.5,28.4-62.3,62.6-62
		C184.5,107.2,212.4,135.3,212.2,169.2z M201.6,169.3c0.1-28.4-23-51.7-51.5-51.9c-28.4-0.2-51.7,23.1-51.8,51.6
		c-0.1,28.5,22.9,51.6,51.5,51.9C178,221.2,201.4,197.9,201.6,169.3z"/>
	<path class="st1" d="M201.6,169.3c-0.1,28.6-23.5,51.9-51.8,51.6c-28.7-0.3-51.6-23.4-51.5-51.9c0.1-28.5,23.5-51.8,51.8-51.6
		C178.6,117.6,201.7,140.9,201.6,169.3z M190.7,171.3c1.1-20.1-13.2-40.5-37-42.7c-23.1-2.2-42.4,14.5-44.4,37.8
		c-1.9,21.8,15.3,42,37.4,43.6C170.3,211.7,189.7,193.6,190.7,171.3z"/>
	<path class="st0" d="M190.7,171.3c-1,22.3-20.4,40.4-44.1,38.7c-22.1-1.6-39.3-21.8-37.4-43.6c2-23.3,21.3-40,44.4-37.8
		C177.5,130.8,191.8,151.2,190.7,171.3z"/>
</g>
</svg>
