<?xml version="1.0" encoding="utf-8"?>
<!-- Generator: Adobe Illustrator 19.2.1, SVG Export Plug-In . SVG Version: 6.00 Build 0)  -->
<svg version="1.1" id="Layer_1" xmlns="http://www.w3.org/2000/svg" xmlns:xlink="http://www.w3.org/1999/xlink" x="0px" y="0px"
	 viewBox="0 0 150 150" style="enable-background:new 0 0 150 150;" xml:space="preserve">
<style type="text/css">
	.st0{fill:#010101;}
	.st1{fill:none;stroke:#000000;stroke-width:2;stroke-miterlimit:10;}
</style>
<g>
	<g>
		<g>
			<path class="st0" d="M74.9,27.3c-9.1,3.3-13.5,14.6-9.4,23.1c0.7,1.5,1.6,1.5,2.8,1.2c2.4-0.5,4.9-0.7,7.3,0.2
				c2.8,1.1,4.6,3.1,5,6.1c0.5,3.1-0.8,5.5-3.4,7.1C76,66,74.5,66.8,73,67.2c-3.2,0.6-4.1,2.6-4.6,5.6c-2.6,17.6-5.4,35.2-8.2,52.7
				c-0.2,1.5-0.4,3-0.3,4.5c0.1,3.3,2.4,5.8,5.4,6.3c3,0.5,5.7-1,7-3.9c0.4-0.9,0.5-2.6,1.8-2c1.6,0.7,0.6,2.2,0.1,3.3
				c-1.9,3.7-6.4,5.6-10.7,4.5c-3.7-1-6.5-4.2-6.1-8.4c0.3-3.3-0.6-4.1-3.9-4.1c-6.3,0-12-2.2-16.7-6.5c-1.1-1-2.3-1.4-3.7-1.4
				c-4.8,0.1-9.7,0-14.5,0c-2.1,0-3.1-0.5-3.1-2.9c0.1-13.2,0.1-26.4,0-39.7c0-2.3,0.7-3,3-2.9c4,0.1,8-0.1,11.9,0.1
				c2.5,0.2,3.9-0.8,5.1-2.9c1.9-3.5,4.1-6.8,6.2-10.2c2.4-3.9,5.9-6.1,10.6-6.2c2.6-0.1,5.1-0.6,7.7-0.7c2.4-0.1,2.8-0.9,2.1-3.1
				c-3-10,2.1-20.5,11.7-24.3c1-0.4,2.2-1.4,3.3-0.4c1,0.9,0.5,2.2,0.3,3.4c-0.3,2.5-0.8,5.1-1.2,7.6c-0.1,0.5-0.3,1.1-0.2,1.6
				c1.5,5.1,6.3,3,9.5,4.1c1.9,0.6,3.3-0.9,3.8-3c0.6-3.2,1.2-6.3,1.9-9.4c0.6-2.8,1.5-3,3.9-1.1c9.6,7.7,9.8,22.3,0.5,30.5
				c-1,0.9-2.2,1.7-3.4,2.5c-0.5,0.4-1,0.9-1.6,0.1c-0.6-0.7-0.6-1.4,0-2c0.7-0.6,1.5-1.2,2.3-1.8c7.9-6.2,9.2-17.9,2.7-25.1
				c-0.5-0.6-1-1.6-2-1.4c-0.9,0.3-0.5,1.3-0.7,2c-0.4,2.1-0.7,4.2-1.2,6.3c-0.8,3.2-2.8,4.7-6.1,4.4C83,43,80.3,42.6,77.7,42
				c-2.7-0.7-4.3-2.5-4-5.4C73.9,33.6,74.5,30.6,74.9,27.3z M66.3,69.4c-5.5,0.8-5.5,0.9-4.7,5.6c1.8,11.2-1.9,20.5-10.5,27.8
				c-0.8,0.7-1.7,1.8-2.7,0.5c-1-1.3,0.4-1.9,1.2-2.5c9.2-7.9,11.8-17.8,8.9-29.3c-0.5-2.1,0.1-2.9,2-3.4c4.8-1.3,9.6-2.4,14-4.6
				c2.5-1.2,5-2.5,4.1-6c-0.8-3-3.6-4.8-7-4.4c-5.9,0.6-11.7,1.7-17.6,1.9c-5.7,0.2-9,3.2-11.5,7.8c-1.7,3.2-3.7,6.3-5.5,9.5
				c-0.9,1.6-2,2.3-3.8,2.3c-4.1-0.1-8.2,0-12.2,0c-1.8,0-2.7,0.4-2.7,2.5c0.1,11.9,0.1,23.8,0,35.8c0,1.7,0.4,2.6,2.3,2.6
				c3.5-0.1,7.1,0,10.6,0c0.6,0,1.6,0.2,1.4-0.8c-0.1-0.9-0.9-2,0.6-2.2c1.2-0.2,1.6,0.9,2.2,1.7c5.1,6.4,11.7,9.5,19.8,9.5
				c1.9,0,2.8-0.4,3.1-2.6c1.5-10.5,3.3-21,4.9-31.4C64.3,82.8,65.3,76.2,66.3,69.4z"/>
			<path class="st0" d="M78.2,125.8c-2.6,0-5.2-0.2-7.7,0.1c-3.1,0.3-3.7-1.1-3.3-3.8c1.5-8.8,2.8-17.6,4.2-26.3
				c0.5-2.9,0.9-5.7,1.4-8.6c0.6-3.4,2.6-5.7,5.7-6.8c2-0.7,2.6-1.9,2.8-3.7c0.1-1.2,0.5-2.3,0.5-3.5c-0.2-4,2-4.5,5.2-4.2
				c3.2,0.2,6.5-0.1,9.7,0.2c4.5,0.3,6.8,3.5,6.1,8c-2.2,13.6-4.4,27.3-6.6,40.9c-0.7,4.6-4.3,7.6-9.2,7.8
				C84,125.8,81.1,125.8,78.2,125.8z M84.7,91.6c2.4,0,4.7,0.1,7.1,0c4.5-0.2,6.9-2.3,7.6-6.7c0.4-2.6,0.8-5.3,1.2-7.9
				c0.5-3.2-1.1-5.2-4.3-5.4c-2.8-0.2-5.6,0.1-8.4-0.1c-2.2-0.2-3,0.8-3.3,2.9c-0.8,5.3-0.8,5.3,4.4,5.4c0.4,0,0.9,0,1.3,0
				c0.9,0,1.6,0.3,1.6,1.2c0.1,1.2-0.8,1.3-1.7,1.3c-2.3,0-4.5,0-6.8,0c-4.8,0.1-7.4,2.5-8.2,7.3c-0.3,1.6,0.1,2.2,1.7,2.2
				C79.5,91.6,82.1,91.6,84.7,91.6z M94.3,114c-2.7,1.5-5.6,1.2-8.5,1.2c-3.2,0-6.4,0-9.7,0c-6.1,0.1-4.5-0.8-5.8,5.1
				c-0.1,0.3,0,0.6-0.1,1c-0.4,1.7,0.3,2.3,2,2.2c4.4-0.1,8.8,0,13.2,0C92.1,123.4,94.4,121,94.3,114z M96.1,103.3
				c-1.7,0.5-3.1,1-4.5,1.2c-1.5,0.2-3,0.1-4.5,0.1c-3,0-6,0-9,0c-5.6,0-5.6,0-6.3,5.5c0,0.1,0,0.2,0,0.3c-0.4,1.7,0.3,2.3,2,2.3
				c4.2-0.1,8.4,0,12.5,0C93.8,112.6,95.3,111.2,96.1,103.3z M97.6,93c-5.8,2-11.9,1-17.8,1.1c-5.9,0.2-5.8,0-6.3,5.9
				c-0.1,1.8,0.4,2.2,2,2.2c4.3-0.1,8.6,0,12.9,0C95.6,102.2,97.5,100.2,97.6,93z"/>
		</g>
	</g>
	<g>
		<path class="st1" d="M103.6,22.2c3.1-5.5,9-9.1,15.7-8.9c9.7,0.2,17.3,8.2,17.1,17.9s-8.2,17.3-17.9,17.1
			c-3.4-0.1-6.6-1.2-9.3-2.9"/>
		<line class="st1" x1="117.8" y1="31.8" x2="118.1" y2="17.9"/>
		<line class="st1" x1="118.9" y1="31.4" x2="132.7" y2="32.7"/>
	</g>
	<g>
		<path d="M17.3,117.8c-0.9,0.1-1.6-0.1-1.9-2.1c-1.8-11.8-3-23.7-2.5-35.9c0-0.3,0-0.7,0.1-1c0.5-5.9,0.5-6,3.5-6.1"/>
	</g>
	<path d="M18.1,117.3c1.1-1.7,4-2.1,4-4.7c-1.6-0.2-2.4,1.6-4,0.9c1-2.3,4.4-2.5,4.6-5.4c-1.8,0-2.7,2.2-4.7,1.5
		c1.1-2.3,4.6-2.6,4.7-5.7c-1.8,0.3-2.6,2.4-4.7,1.8c1-2.2,4.1-2.7,4.4-5.6c-1.9,0.3-2.7,2.4-4.8,1.8c1.3-2.4,4.8-2.9,4.9-6.2
		c-1.9,0.1-2.7,2.5-4.9,2c1.4-2.3,4.3-3.2,4.8-6.2c-2,0.4-2.8,2.4-4.9,2.4c1-2.4,4.1-3.1,4.3-5.9c-1.9,0.3-2.8,2.3-4.9,2
		c1.3-2.4,4.5-3.2,4.8-6.4c-2,0.3-2.6,2.8-4.9,2.4c1-2.5,4.2-3.3,4.3-6.4c-2.2,0.1-2.7,2.9-4.9,2.5c0.6-2.7,4.2-3.3,3.9-6.7
		c-1.8,0.7-2.2,3-4.4,3.1c0.8-2.5,3.4-3.8,3.9-6.4c-1.7,0.1-2.3,2.2-4.2,1.9"/>
	<path d="M20.9,118.6"/>
</g>
</svg>
