<?xml version="1.0" encoding="utf-8"?>
<!-- Generator: Adobe Illustrator 19.2.1, SVG Export Plug-In . SVG Version: 6.00 Build 0)  -->
<svg version="1.1" id="Layer_1" xmlns="http://www.w3.org/2000/svg" xmlns:xlink="http://www.w3.org/1999/xlink" x="0px" y="0px"
	 viewBox="0 0 300 300" style="enable-background:new 0 0 300 300;" xml:space="preserve">
<style type="text/css">
	.st0{fill:#87AB3F;}
</style>
<g>
	<path d="M247.7,7.3c5.5,1.3,11.1,2.5,16.4,4.5c0.5,0.2,1,0.4,1.6,0.6c-0.1,1-0.9,1.4-1.4,1.9c-9.3,9.3-18.5,18.6-27.9,27.8
		c-1.5,1.5-1.4,2.2,0.1,3.6c6.3,6.2,12.6,12.4,18.8,18.8c1.5,1.6,2.2,1.3,3.6-0.1c9.1-9.2,18.3-18.3,27.4-27.5
		c0.6-0.6,1.1-1.5,1.8-2.6c15.2,34.7-3.6,67.9-35,75.1c-7.1,1.6-14.2,1.6-21.3,0.1c-1.4-0.3-2.4-0.1-3.4,1
		c-11.5,11.6-23,23.1-34.6,34.6c-1.5,1.5-1.1,2.2,0.2,3.4c28.8,28.7,57.5,57.4,86.2,86.1c6.3,6.3,7.5,13.9,3.3,20.8
		c-1,1.6-2.2,3-3.5,4.3c-6.6,6.7-13.3,13.3-19.9,20c-8.3,8.3-17.4,8.3-25.7,0.1c-28.5-28.4-56.9-56.9-85.3-85.4
		c-1.8-1.8-2.6-1.9-4.4,0c-10.9,11.1-21.9,22.1-33,33c-1.8,1.8-2.3,3.4-1.8,5.8c3.2,18.4-2.2,34.2-15.8,46.7
		C79.3,293.3,62,296.5,43,291.1c-2.7-0.8-5.3-1.7-8.1-2.6c10.6-10.5,20.9-20.9,31.4-31.4c-7.3-7.2-14.3-14.2-21.2-21.2
		c-1.3-1.4-1.9-0.6-2.8,0.3c-9.5,9.6-19.1,19.1-28.6,28.7c-0.3,0.3-0.7,0.6-1.2,1.2c-2-5.5-3.6-10.8-4.6-16.4
		c-0.1-0.5,0.1-1.2-0.6-1.4c0-4.3,0-8.6,0-12.9c1.1-1.6,0.9-3.5,1.3-5.2c4.4-20.5,23.2-37.3,44.1-39.5c5.5-0.6,11-0.4,16.4,0.7
		c1.6,0.3,2.5,0,3.6-1.1c17.7-17.8,35.5-35.6,53.4-53.4c1.2-1.2,1.3-1.8,0.1-3c-22.9-22.8-45.7-45.7-68.6-68.6
		c-1.2-1.2-2.4-1.5-4-1.6c-5.1-0.3-10.2-0.7-15.3-0.9c-1.4-0.1-2.2-0.6-2.8-1.8c-6.2-10.7-12.5-21.3-18.9-31.9c-1-1.6-1-2.6,0.5-4
		c3-2.7,5.9-5.7,8.7-8.7c0.8-0.8,1.4-1.2,2.6-0.5c11.2,6.8,22.6,13.1,33.6,20.1c1,0.6,0.8,1.3,0.9,2.1c0.4,4.9,0.8,9.8,1,14.8
		c0.1,2.1,0.7,3.6,2.2,5.1c22.6,22.5,45.1,45,67.5,67.6c1.6,1.7,2.4,1.3,3.8-0.1c17.5-17.6,35.1-35.2,52.8-52.8
		c1.1-1.1,1.6-2.1,1.3-3.8c-2.9-14.4-0.1-27.7,8.4-39.7c8.3-11.9,19.7-18.9,34-21.4c0.6-0.1,1.4,0.2,1.7-0.6
		C239.5,7.3,243.6,7.3,247.7,7.3z M274.6,247.1c0-2.1-1.1-3.4-2.4-4.7c-28.7-28.7-57.4-57.4-86.1-86.1c-1.4-1.4-2.2-1.2-3.5,0.1
		c-8.6,8.7-17.2,17.3-25.9,25.9c-1.8,1.8-1.8,2.7,0,4.5c19.5,19.4,38.9,38.8,58.3,58.2c9.2,9.2,18.3,18.3,27.5,27.4
		c3.1,3.1,5.8,3.2,8.7,0.3c7.2-7.1,14.4-14.3,21.5-21.5C273.9,249.9,274.7,248.6,274.6,247.1z M244.3,18.6c-3.6-0.5-6.6-0.1-9.6,0.5
		c-15.2,3-25.5,12-31,26.2c-3.4,8.7-3.1,17.7-0.2,26.6c0.6,1.9,0.3,3-1.1,4.3c-18.9,18.8-37.7,37.6-56.5,56.5
		c-0.5,0.5-1,1.1-1.6,1.6c-0.9,0.8-0.9,1.4,0,2.2c1.8,1.7,3.5,3.3,5.1,5.1c1.1,1.2,1.8,1.1,2.8,0c2.8-2.9,5.7-5.6,8.4-8.5
		c1.1-1.2,1.8-1.1,2.9,0c3.7,3.8,7.5,7.5,11.2,11.3c1.5,1.5,2.3,1.7,3.9,0.1c15.2-15.3,30.6-30.5,45.8-45.9c1.5-1.6,2.8-1.8,4.8-1.2
		c18.3,5.4,36.2-0.7,46.4-16c4.9-7.4,7.2-15.5,6.7-25.3c-1.1,1.3-1.7,2-2.3,2.7c-7.1,7.1-14.3,14.2-21.3,21.4
		c-1.3,1.3-1.9,1.6-3.4,0.1c-11.5-11.7-23.1-23.3-34.8-34.8c-1.4-1.4-1.1-2,0.1-3.2C228.4,34.5,236.2,26.7,244.3,18.6z M56.4,282.3
		c7.2,0.4,13.3-0.8,19.2-3.4c18-7.9,28.6-29.1,21.9-49.6c-0.7-2-0.4-3.3,1.2-4.8c7.8-7.6,15.5-15.4,23.2-23.1
		c7.7-7.7,15.3-15.5,23.1-23.2c1.2-1.2,1.2-1.9,0-3.1c-4-3.8-7.7-7.9-11.8-11.5c-1.4-1.2-1.1-1.7-0.1-2.7c2.7-2.7,5.3-5.5,8.1-8.1
		c1.5-1.4,2-2.4,0.1-3.9c-1.4-1.1-2.7-2.4-3.8-3.7c-1.4-1.8-2.4-1.8-4.1-0.1c-18.8,19-37.8,37.8-56.6,56.8c-1.6,1.6-2.9,2.1-5.3,1.5
		c-21.2-6.3-41.7,3.3-50.1,23.2c-2.3,5.5-3.4,11.2-2.8,17.6c8-8,15.8-15.7,23.4-23.4c1.4-1.4,2.1-1.7,3.6-0.1
		c11.4,11.5,22.9,23,34.4,34.4c1.4,1.4,1.9,2.2,0.1,3.6c-1.9,1.6-3.6,3.5-5.4,5.3C68.7,270,62.8,276,56.4,282.3z M31.1,30.6
		c-0.2,0.2-0.3,0.3-0.5,0.5c3.9,6.6,7.9,13.2,11.8,19.8c0.4,0.7,0.9,1.1,1.7,1.1c2.2,0.1,4.5,0.3,6.7,0.5c1.2,0.1,1.9,0,1.8-1.6
		c-0.2-2.4-0.8-4.8-0.6-7.2c0.1-0.6-0.3-1-0.8-1.3C44.4,38.5,37.8,34.6,31.1,30.6z M168.8,154.1c-0.3-0.4-0.6-0.7-0.9-1
		c-1.5-1.5-3.1-3-4.5-4.6c-0.9-1-1.5-1-2.5,0c-4,4.1-8.1,8.2-12.2,12.2c-1,1-1.2,1.7-0.1,2.7c1.5,1.4,3,2.8,4.3,4.3
		c1,1.1,1.5,0.8,2.4-0.1c4.1-4.2,8.3-8.3,12.4-12.5C168.1,154.9,168.4,154.6,168.8,154.1z"/>
	<path d="M41.4,251.9c0.4,0.3,0.7,0.6,1,0.9c1.9,1.9,3.8,3.8,5.7,5.7c0.9,0.9,0.8,1.5-0.1,2.2c-0.6,0.5-1,1.1-1.6,1.6
		c-1.8,1.6-3.2,3.6-5.3,4.9c-2.4-2.3-4.7-4.7-7.1-7c-0.4-0.4-0.3-0.8,0-1.2c2.2-2.2,4.3-4.3,6.5-6.5C40.8,252.2,41,252.1,41.4,251.9
		z"/>
	<path d="M259.6,33.7c0.3,0.2,0.6,0.4,0.8,0.7c2,2,4,4.1,6.1,6.1c0.7,0.7,0.6,1.2-0.1,1.8c-0.5,0.4-0.9,0.9-1.4,1.4
		c-1.9,1.7-3.7,5.3-5.5,4.9c-2.9-0.7-4.8-4.1-7.1-6.4c-0.4-0.4-0.6-0.9-0.1-1.4c2.2-2.2,4.3-4.3,6.5-6.5
		C259,34,259.3,33.9,259.6,33.7z"/>
	<path class="st0" d="M274.6,247.1c0.1,1.6-0.7,2.9-1.8,4c-7.2,7.2-14.3,14.4-21.5,21.5c-3,2.9-5.6,2.8-8.7-0.3
		c-9.2-9.1-18.3-18.3-27.5-27.4c-19.4-19.4-38.8-38.9-58.3-58.2c-1.8-1.8-1.8-2.7,0-4.5c8.7-8.5,17.3-17.2,25.9-25.9
		c1.3-1.3,2.1-1.5,3.5-0.1c28.7,28.7,57.4,57.4,86.1,86.1C273.4,243.6,274.6,244.9,274.6,247.1z"/>
	<path class="st0" d="M168.8,154.1c-0.4,0.4-0.7,0.8-1,1.1c-4.1,4.2-8.3,8.3-12.4,12.5c-0.8,0.9-1.4,1.2-2.4,0.1
		c-1.3-1.5-2.8-3-4.3-4.3c-1.2-1-1-1.7,0.1-2.7c4.1-4,8.2-8.1,12.2-12.2c0.9-1,1.6-1,2.5,0c1.4,1.6,3,3,4.5,4.6
		C168.2,153.4,168.5,153.8,168.8,154.1z"/>
</g>
</svg>
