<?xml version="1.0" encoding="utf-8"?>
<!-- Generator: Adobe Illustrator 19.2.1, SVG Export Plug-In . SVG Version: 6.00 Build 0)  -->
<svg version="1.1" id="Layer_1" xmlns="http://www.w3.org/2000/svg" xmlns:xlink="http://www.w3.org/1999/xlink" x="0px" y="0px"
	 viewBox="0 0 300 300" style="enable-background:new 0 0 300 300;" xml:space="preserve">
<style type="text/css">
	.st0{fill:#87AC3F;}
</style>
<g>
	<path d="M150,169.2c-55.3,0-100.3,45-100.3,100.3v22.8h200.7v-22.8C250.3,214.2,205.3,169.2,150,169.2L150,169.2z M190.4,187.8
		c-13,28.1-32,68.7-40.1,85.3l-40.6-85.3c12.2-6,25.9-9.5,40.4-9.5C164.5,178.3,178.2,181.8,190.4,187.8L190.4,187.8z M197.2,194.8
		l11.4,49.6l-47.4,27.1C167.4,258.9,178.1,236.1,197.2,194.8L197.2,194.8z M139.6,272l-48.3-27.6l11.5-49.7L139.6,272z M58.8,269.5
		c0-28.5,13.2-54,33.8-70.7L80.9,249l59.9,34.2h-82V269.5z M241.2,283.2h-82l59.9-34.2l-11.6-50.2c20.6,16.7,33.7,42.2,33.7,70.7
		V283.2z M241.2,283.2"/>
	<path d="M206.9,141.8h11.5c7.5,0,13.7-6.1,13.7-13.7v-13.7H223v13.7c0,2.5-2,4.6-4.6,4.6h-5.3c6.2-10.7,9.9-23.2,9.9-36.5
		c0-40.2-32.7-73-73-73c-40.2,0-73,32.7-73,73c0,40.2,32.7,73,73,73C173,169.2,193.5,158.5,206.9,141.8L206.9,141.8z M86.2,96.2
		c0-35.2,28.6-63.8,63.9-63.8c35.2,0,63.8,28.6,63.8,63.8c0,13.6-4.3,26.1-11.5,36.5H172c-1.9-5.3-6.9-9.1-12.8-9.1h-18.2
		c-7.5,0-13.7,6.1-13.7,13.7s6.1,13.7,13.7,13.7h18.2c5.9,0,11-3.8,12.8-9.1h22.6C183.1,153.1,167.4,160,150,160
		C114.8,160,86.2,131.4,86.2,96.2L86.2,96.2z M163.7,137.2c0,2.5-2,4.6-4.6,4.6h-18.2c-2.5,0-4.6-2-4.6-4.6c0-2.5,2-4.6,4.6-4.6
		h18.2C161.6,132.7,163.7,134.7,163.7,137.2L163.7,137.2z M163.7,137.2"/>
	<path d="M150,18.7c33,0,62.4,20.9,73.2,52l8.6-3c-12.1-34.8-45-58.1-81.8-58.1c-36.8,0-69.7,23.3-81.8,58.1l8.6,3
		C87.6,39.6,117,18.7,150,18.7L150,18.7z M150,18.7"/>
	<path class="st0" d="M77,128.1h-4.6c-17.6,0-31.9-14.3-31.9-31.9c0-17.6,14.3-31.9,31.9-31.9H77V128.1z M77,128.1"/>
	<path class="st0" d="M227.5,128.1H223V64.3h4.6c17.6,0,31.9,14.3,31.9,31.9C259.5,113.8,245.1,128.1,227.5,128.1L227.5,128.1z
		 M227.5,128.1"/>
</g>
</svg>
