<?xml version="1.0" encoding="utf-8"?>
<!-- Generator: Adobe Illustrator 19.2.1, SVG Export Plug-In . SVG Version: 6.00 Build 0)  -->
<svg version="1.1" id="Layer_1" xmlns="http://www.w3.org/2000/svg" xmlns:xlink="http://www.w3.org/1999/xlink" x="0px" y="0px"
	 viewBox="0 0 300 300" style="enable-background:new 0 0 300 300;" xml:space="preserve">
<style type="text/css">
	.st0{fill:#FEFEFE;}
	.st1{fill:#28303E;}
	.st2{fill:#87AB3F;}
</style>
<g>
	<path class="st0" d="M172.9,247.9c0-4.9-0.1-9.7,0-14.6c0-1.9-0.6-2.3-2.4-2.3c-9.4,0.1-18.7,0.1-28.1,0c-2.1,0-2.8,0.4-2.8,2.7
		c0.1,8.8,0,17.6,0,26.4c0,3.9,0,4,3.9,4.1c9.1,0.1,18.1,0,27.2,0.1c1.9,0,2.1-0.7,2.1-2.3C172.9,257.3,172.9,252.6,172.9,247.9z
		 M156.5,220.4c4.7,0,9.3-0.1,14,0c1.9,0.1,2.6-0.3,2.5-2.4c-0.1-9.3-0.1-18.7,0-28c0-1.6-0.3-2.3-2.1-2.3c-9.7,0.1-19.4,0.1-29.1,0
		c-1.7,0-2,0.6-2,2.1c0.1,9.4,0.1,18.9,0,28.3c0,2,0.7,2.3,2.4,2.2C146.9,220.3,151.7,220.4,156.5,220.4z M156.1,90.7
		c4.9,0,9.9,0,14.8,0c1.3,0,2-0.1,2-1.8c-0.1-9.9-0.1-19.8,0-29.7c0-1.4-0.4-1.7-1.8-1.7c-9.8,0-19.6,0-29.4,0
		c-1.6,0-2.1,0.5-2.1,2.1c0.1,9.7,0.1,19.4,0,29.1c0,1.6,0.5,2,2.1,2C146.6,90.7,151.4,90.7,156.1,90.7z M156.1,133.9
		C156.1,134,156.1,134,156.1,133.9c4.9,0,9.7,0,14.6,0.1c1.8,0,2.4-0.5,2.3-2.3c-0.1-9.5-0.1-19,0-28.6c0-1.8-0.5-2.3-2.3-2.3
		c-9.6,0.1-19.2,0.1-28.8,0c-1.6,0-2.1,0.4-2,2c0.1,9.7,0.1,19.4,0,29.1c0,1.6,0.4,2.1,2,2C146.6,133.9,151.3,133.9,156.1,133.9z
		 M226.5,122.9c-11.8,0-23.5,0-35.3,0c-2.6,0-5.9-1.2-7.5,0.5c-1.5,1.6-0.2,4.8-0.5,7.3c-0.3,2.6,0.7,3.2,3.2,3.2
		c25.2-0.1,50.5,0,75.7-0.1c2.6,0,6,1.2,7.5-0.5c1.5-1.7,0.2-5,0.5-7.6c0.2-2.2-0.5-3-2.9-3C253.6,122.9,240.1,122.9,226.5,122.9z
		 M226.6,90.6c13.6,0,27.3,0,40.9,0c1.9,0,2.7-0.5,2.5-2.5c-0.2-1.9-0.1-3.9,0-5.9c0.2-2.2-0.5-2.8-2.7-2.8
		c-27.1,0.1-54.2,0.1-81.3,0.1c-2.1,0-3.1,0.4-2.8,2.7c0.2,1.8,0.2,3.7,0,5.6c-0.2,2.2,0.5,2.8,2.8,2.8
		C199.5,90.6,213.1,90.6,226.6,90.6z M226.5,177.1c11.9,0,23.7,0,35.6,0c2.5,0,5.8,0.9,7.3-0.4c1.7-1.5,0.3-4.9,0.6-7.5
		c0.4-2.6-0.6-3.2-3.2-3.2c-25,0.1-50.1,0.1-75.1,0.1c-2.7,0-6.2-1.2-7.9,0.4c-1.9,1.7-0.3,5.3-0.6,8c-0.2,2.1,0.6,2.6,2.6,2.6
		C199.4,177.1,212.9,177.1,226.5,177.1z M156.1,177.2C156.1,177.2,156.1,177.2,156.1,177.2c4.9,0,9.7,0,14.6,0.1
		c1.6,0,2.3-0.2,2.3-2.1c-0.1-9.5-0.1-19,0-28.6c0-1.6-0.5-2-2.1-2c-9.7,0.1-19.4,0.1-29.1,0c-1.6,0-2,0.5-2,2
		c0.1,9.5,0.1,19,0,28.6c0,1.6,0.5,2,2,2C146.6,177.1,151.4,177.2,156.1,177.2z M226.6,263.7C226.6,263.7,226.6,263.7,226.6,263.7
		c13.6,0,27.3-0.1,40.9,0c1.9,0,2.7-0.3,2.5-2.4c-0.2-1.9-0.2-3.8,0-5.6c0.3-2.4-0.6-2.9-2.9-2.9c-25.2,0.1-50.5,0-75.7,0.1
		c-2.7,0-6.4-1.2-7.8,0.5c-1.3,1.7-0.3,5.2-0.5,7.9c-0.2,2,0.5,2.5,2.5,2.5C199.3,263.7,212.9,263.7,226.6,263.7z M226.5,220.4
		C226.5,220.4,226.5,220.4,226.5,220.4c11.9,0,23.8,0,35.6,0c2.5,0,5.9,0.9,7.3-0.4c1.6-1.5,0.2-4.9,0.6-7.5c0.4-2.6-0.8-3-3.1-3
		c-25.2,0.1-50.3,0-75.5,0c-2.7,0-6.1-1.1-7.8,0.6c-1.5,1.6-0.3,5-0.5,7.6c-0.2,2.1,0.4,2.8,2.7,2.8
		C199.4,220.3,213,220.4,226.5,220.4z M205,242.1c4.4,0,8.8,0.1,13.2,0c2.8-0.1,6.4,1.2,8.1-0.6c1.6-1.8,0.3-5.4,0.5-8.1
		c0.2-1.8-0.5-2.4-2.3-2.4c-13,0.1-26,0.1-39,0c-1.6,0-2.4,0.3-2.3,2.1c0.1,2.2,0.1,4.5,0,6.7c-0.1,1.7,0.5,2.2,2.2,2.2
		C191.9,242.1,198.5,242.1,205,242.1z M204.9,144.6c-6.5,0-13.1,0-19.6,0c-1.5,0-2.2,0.2-2.1,2c0.1,2.3,0.1,4.7,0,7
		c-0.1,1.5,0.4,1.9,1.9,1.9c13.3,0,26.5,0,39.8,0c1.6,0,1.9-0.6,1.8-2c-0.1-2.2-0.1-4.5,0-6.7c0.1-1.8-0.5-2.2-2.2-2.2
		C218,144.7,211.5,144.6,204.9,144.6z M204.9,68.9C204.9,68.9,204.9,68.9,204.9,68.9c6.5,0,13.1-0.1,19.6,0c1.7,0,2.3-0.4,2.2-2.2
		c-0.2-2.2-0.1-4.5,0-6.7c0.1-1.4-0.3-2-1.8-2c-13.3,0.1-26.6,0-39.8,0c-1.5,0-1.9,0.5-1.9,2c0.1,2.1,0.1,4.3-0.1,6.4
		c-0.1,1.9,0.4,2.6,2.5,2.5C192,68.8,198.5,68.9,204.9,68.9z M204.9,112.2C204.9,112.2,204.9,112.2,204.9,112.2
		c6.5,0,13.1-0.1,19.6,0c1.7,0,2.3-0.4,2.2-2.2c-0.2-2.3-0.1-4.7,0-7c0-1.2-0.3-1.7-1.5-1.7c-13.5,0-26.9,0-40.4,0
		c-1.2,0-1.7,0.4-1.6,1.6c0.1,2.3,0.2,4.7,0,7c-0.2,2,0.6,2.3,2.4,2.3C192,112.1,198.5,112.2,204.9,112.2z M204.7,198.8
		c6.6,0,13.3,0,19.9,0c1.5,0,2.3-0.3,2.2-2c-0.1-2.4-0.1-4.9,0-7.3c0-1.1-0.2-1.7-1.5-1.7c-13.5,0-26.9,0-40.4,0
		c-1.2,0-1.6,0.4-1.6,1.6c0.1,2.3,0.1,4.7,0,7c-0.1,1.9,0.6,2.4,2.4,2.4C191.9,198.7,198.3,198.8,204.7,198.8z M183.2,41.6
		c0,5.7,0,5.7,5.6,5.7c5.4,0,5.4,0,5.4-5.3c0-5.7,0-5.7-5.6-5.7C183.2,36.3,183.2,36.3,183.2,41.6z M145.2,36.3
		c-5.3,0-5.3,0-5.3,5.2c0,5.7,0,5.7,5.8,5.8c5.3,0.1,5.3,0.1,5.2-5.2C150.9,36.3,150.9,36.3,145.2,36.3z M167.2,47.3
		c5.3,0,5.3,0,5.3-5.2c0-0.2,0-0.4,0-0.6c0-5.3,0-5.3-5.2-5.3c-5.7-0.1-5.7-0.1-5.7,5.6C161.7,47.3,161.7,47.3,167.2,47.3z"/>
	<path class="st1" d="M122.4,293.2c-1.5-3.4-0.5-6.9-0.6-10.4c0-1.1,1.4-0.6,2.1-0.6c16.7,0,33.3,0,50,0c35.5,0,70.9,0,106.4,0.1
		c2.1,0,2.6-0.5,2.6-2.6c-0.1-52.5-0.1-105-0.1-157.4c0-20.4,0-40.8,0.1-61.2c0-2.3-0.6-3-2.9-2.9c-11.9,0.1-23.8,0-35.6,0.1
		c-2,0-2.5-0.5-2.5-2.5c0.1-11.9,0-23.8,0.2-35.6c0-2.6-0.8-3-3.1-3c-38.2,0.1-76.3,0-114.5,0.1c-2.2,0-2.9-0.6-2.7-2.8
		c0.2-2.6-0.8-6.1,0.5-7.6c1.5-1.8,5.1-0.5,7.8-0.5c38.8,0,77.6,0,116.5-0.1c2.4,0,4,0.7,5.6,2.4c13.8,13.9,27.8,27.8,41.6,41.7
		c0,80.8,0,161.7,0,242.5c-1.2,0.1-2.4,0.2-3.6,0.2c-54.9,0-109.7,0-164.6,0C124.4,293,123.4,293.1,122.4,293.2z M273.5,47
		c-6.8-6.9-13.8-14-20.7-21c0,6.1,0,12.6,0,19.1c0,0.9-0.2,1.9,1.3,1.9C260.9,47,267.6,47,273.5,47z"/>
	<path class="st1" d="M6.2,113.7c1.3-1.5,1.1-3.4,1.7-5.1C12,95.9,24.3,83.9,41.7,83.8c17.5-0.2,35-0.6,52.5,0.2
		c16.9,0.8,31.3,15.2,32.8,32.1c0.4,5.1,0.2,10.1,0.2,15.1c0,20.5,0,41,0,61.5c0,4.5,0.5,3.9-3.8,3.9c-6,0-12,0.2-18,0
		c-2.3-0.1-2.7,0.6-2.7,2.8c0.1,30.2,0,60.4,0,90.6c0,1.1,0,2.2,0,3.3c-3.6,0-7.1,0-10.7,0c-0.1-0.8-0.3-1.7-0.3-2.5
		c0-12.5,0-25.1,0-37.6c0-19.1,0-38.2-0.1-57.2c0.5-1.1,0.3-2.2,0.3-3.3c0.1-5.2,0.2-10.4,0.1-15.6c0-1.7,0.4-2.3,2.2-2.2
		c2.8,0.1,5.6,0.1,8.4,0.1c0,3,0.1,5.9,0,8.9c0,1.3,0.3,1.8,1.7,1.8c3.4-0.1,6.9-0.1,10.3,0c1.3,0,1.6-0.4,1.5-1.6
		c-0.1-3.1-0.1-6.1-0.1-9.2c0.1-18.9,0.5-37.9,0-56.8c-0.2-9.2-5.3-16.2-13.6-20.7c-5.3-2.9-11.2-1.8-16.8-2.5
		c-12.6-0.3-25.3-0.2-37.9,0c-5.6-0.3-11.2-0.5-16.4,2.2c-9.7,5-14.4,13.1-14.5,23.9c-0.1,13.9,0,27.9,0,41.8c0,4,0.1,8,0.2,12
		c0,3,0.1,6,0,8.9c-0.1,1.6,0.5,2.1,2.1,2c3.3-0.1,6.5-0.1,9.8,0c1.4,0,1.7-0.5,1.7-1.8c-0.1-3,0-6,0-8.9c2.8,0,5.6,0.1,8.4-0.1
		c2.1-0.1,2.7,0.6,2.6,2.6c-0.1,6.2,0,12.4,0,18.7c0,32.4,0,64.8-0.1,97.2c-3.7,0-7.5,0-11.2,0c0.1-0.1,0.3-0.3,0.3-0.4
		c0-22.2-0.1-44.3-0.1-66.5c0-9.2,0-18.3,0-27.5c0-1.2,0.4-2.4-1.7-2.4c-7.6,0.1-15.1,0.2-22.7,0.2C6.2,169.1,6.2,141.4,6.2,113.7z"
		/>
	<path class="st1" d="M61.2,293.4c0-27.9,0-55.8,0-83.6c0-1.7,0.3-2.5,2.2-2.4c2.8,0.3,6.4-1.1,8.1,0.5c1.7,1.6,0.5,5.3,0.5,8.1
		c0,24.6,0,49.2,0,73.8c0,1.2-0.1,2.4-0.2,3.6C68.3,293.4,64.8,293.4,61.2,293.4z"/>
	<path class="st2" d="M122.4,293.2c1-0.1,2-0.2,3-0.2c54.9,0,109.7,0,164.6,0c1.2,0,2.4-0.1,3.6-0.2c-0.6,1.2-1.7,0.5-2.5,0.5
		c-48.9,0-97.7,0-146.6,0c-7.6,0-15.1,0-22.7,0C122,293.3,122.2,293.3,122.4,293.2z"/>
	<path class="st1" d="M66.6,6.2c18.7-0.1,34,15.2,34,34c0,18.7-14.9,33.8-33.7,34c-18.5,0.3-34.2-15.2-34.3-33.9
		C32.6,21.7,47.8,6.3,66.6,6.2z M43.7,40.1c-0.1,12.6,10.2,23,22.8,23.1c12.7,0.1,23.3-10.4,23.3-23.1c-0.1-12.5-10.6-23-23.1-23
		C54.1,17.1,43.8,27.5,43.7,40.1z"/>
	<path class="st2" d="M172.9,247.9c0,4.7-0.1,9.4,0,14c0,1.6-0.2,2.3-2.1,2.3c-9.1-0.1-18.1,0-27.2-0.1c-3.9,0-3.9-0.1-3.9-4.1
		c0-8.8,0.1-17.6,0-26.4c0-2.3,0.7-2.7,2.8-2.7c9.4,0.1,18.7,0.1,28.1,0c1.8,0,2.4,0.5,2.4,2.3C172.9,238.2,172.9,243,172.9,247.9z"
		/>
	<path class="st2" d="M156.5,220.4c-4.8,0-9.5-0.1-14.3,0c-1.7,0-2.4-0.3-2.4-2.2c0.1-9.4,0.1-18.9,0-28.3c0-1.5,0.3-2.1,2-2.1
		c9.7,0.1,19.4,0.1,29.1,0c1.8,0,2.1,0.6,2.1,2.3c-0.1,9.3-0.1,18.7,0,28c0,2.1-0.7,2.4-2.5,2.4
		C165.8,220.3,161.1,220.4,156.5,220.4z"/>
	<path class="st2" d="M156.1,90.7c-4.8,0-9.5-0.1-14.3,0c-1.6,0-2.1-0.4-2.1-2c0.1-9.7,0-19.4,0-29.1c0-1.6,0.5-2.1,2.1-2.1
		c9.8,0.1,19.6,0.1,29.4,0c1.3,0,1.8,0.4,1.8,1.7c-0.1,9.9-0.1,19.8,0,29.7c0,1.6-0.7,1.8-2,1.8C166,90.7,161.1,90.7,156.1,90.7z
		 M161.7,74.2c0-5.3,0-5.3-5.2-5.3c-5.5,0-5.5,0-5.5,5.5c0,5.2,0,5.2,5.3,5.2C161.7,79.5,161.7,79.5,161.7,74.2z"/>
	<path class="st2" d="M156.1,133.9c-4.8,0-9.5-0.1-14.3,0c-1.6,0-2-0.5-2-2c0.1-9.7,0.1-19.4,0-29.1c0-1.6,0.5-2,2-2
		c9.6,0.1,19.2,0.1,28.8,0c1.8,0,2.3,0.5,2.3,2.3c-0.1,9.5-0.1,19,0,28.6c0,1.8-0.5,2.4-2.3,2.3C165.8,133.9,161,134,156.1,133.9
		C156.1,134,156.1,134,156.1,133.9z M156.4,112.1c-5.4,0-5.4,0-5.4,5.5c0,5.2,0,5.2,5.3,5.2c5.4,0,5.4,0,5.4-5.5
		C161.7,112.1,161.7,112.1,156.4,112.1z"/>
	<path class="st1" d="M226.5,122.9c13.5,0,27.1,0.1,40.6-0.1c2.4,0,3.1,0.7,2.9,3c-0.2,2.6,1.1,5.9-0.5,7.6
		c-1.6,1.7-4.9,0.5-7.5,0.5c-25.2,0-50.5,0-75.7,0.1c-2.5,0-3.5-0.6-3.2-3.2c0.3-2.5-1-5.8,0.5-7.3c1.6-1.7,5-0.5,7.5-0.5
		C203,122.8,214.7,122.9,226.5,122.9z"/>
	<path class="st1" d="M226.6,90.6c-13.6,0-27.1-0.1-40.7,0.1c-2.3,0-3-0.6-2.8-2.8c0.2-1.9,0.2-3.8,0-5.6c-0.3-2.3,0.7-2.7,2.8-2.7
		c27.1,0.1,54.2,0,81.3-0.1c2.3,0,2.9,0.6,2.7,2.8c-0.2,1.9-0.2,3.9,0,5.9c0.2,2-0.6,2.5-2.5,2.5C253.9,90.6,240.2,90.6,226.6,90.6z
		"/>
	<path class="st1" d="M226.5,177.1c-13.6,0-27.1,0-40.7,0.1c-2.1,0-2.9-0.5-2.6-2.6c0.3-2.7-1.2-6.3,0.6-8c1.7-1.6,5.2-0.4,7.9-0.4
		c25,0,50.1,0,75.1-0.1c2.5,0,3.5,0.6,3.2,3.2c-0.3,2.6,1.1,6-0.6,7.5c-1.5,1.3-4.8,0.4-7.3,0.4
		C250.2,177.2,238.3,177.1,226.5,177.1z"/>
	<path class="st2" d="M156.1,177.2c-4.8,0-9.5-0.1-14.3,0c-1.6,0-2.1-0.4-2-2c0.1-9.5,0.1-19,0-28.6c0-1.6,0.4-2.1,2-2
		c9.7,0.1,19.4,0.1,29.1,0c1.6,0,2.1,0.4,2.1,2c-0.1,9.5-0.1,19,0,28.6c0,1.9-0.7,2.1-2.3,2.1C165.8,177.2,161,177.2,156.1,177.2
		C156.1,177.2,156.1,177.2,156.1,177.2z M161.7,160.8c0-5.4,0-5.4-5.1-5.4c-5.6,0-5.6,0-5.6,5.8c0,5.2,0,5.2,5.1,5.2
		C161.7,166.3,161.7,166.3,161.7,160.8z"/>
	<path class="st1" d="M226.6,263.7c-13.6,0-27.3,0-40.9,0c-1.9,0-2.6-0.5-2.5-2.5c0.2-2.7-0.9-6.2,0.5-7.9c1.4-1.8,5.1-0.5,7.8-0.5
		c25.2,0,50.5,0,75.7-0.1c2.3,0,3.2,0.5,2.9,2.9c-0.2,1.8-0.2,3.7,0,5.6c0.2,2.1-0.6,2.4-2.5,2.4
		C253.9,263.6,240.2,263.7,226.6,263.7C226.6,263.7,226.6,263.7,226.6,263.7z"/>
	<path class="st1" d="M226.5,220.4c-13.6,0-27.1-0.1-40.7,0.1c-2.3,0-2.9-0.6-2.7-2.8c0.2-2.6-1-6,0.5-7.6c1.7-1.7,5.1-0.6,7.8-0.6
		c25.2,0,50.3,0,75.5,0c2.3,0,3.5,0.4,3.1,3c-0.4,2.6,1.1,6-0.6,7.5c-1.4,1.3-4.8,0.4-7.3,0.4C250.3,220.4,238.4,220.4,226.5,220.4
		C226.5,220.4,226.5,220.4,226.5,220.4z"/>
	<path class="st1" d="M205,242.1c-6.5,0-13.1-0.1-19.6,0c-1.7,0-2.3-0.5-2.2-2.2c0.1-2.2,0.1-4.5,0-6.7c-0.1-1.8,0.6-2.1,2.3-2.1
		c13,0,26,0,39,0c1.9,0,2.5,0.5,2.3,2.4c-0.2,2.8,1.1,6.4-0.5,8.1c-1.7,1.8-5.3,0.5-8.1,0.6C213.8,242.2,209.4,242.1,205,242.1z"/>
	<path class="st1" d="M204.9,144.6c6.5,0,13.1,0.1,19.6,0c1.7,0,2.3,0.4,2.2,2.2c-0.2,2.2-0.1,4.5,0,6.7c0.1,1.4-0.3,2-1.8,2
		c-13.3,0-26.5,0-39.8,0c-1.5,0-2-0.5-1.9-1.9c0.1-2.3,0.1-4.7,0-7c-0.1-1.7,0.7-2,2.1-2C191.9,144.6,198.4,144.6,204.9,144.6z"/>
	<path class="st1" d="M204.9,68.9c-6.5,0-12.9-0.1-19.4,0.1c-2,0-2.6-0.6-2.5-2.5c0.2-2.1,0.1-4.3,0.1-6.4c-0.1-1.4,0.4-2,1.9-2
		c13.3,0,26.6,0.1,39.8,0c1.6,0,1.9,0.6,1.8,2c-0.1,2.2-0.2,4.5,0,6.7c0.1,1.8-0.5,2.2-2.2,2.2C218,68.8,211.5,68.9,204.9,68.9
		C204.9,68.9,204.9,68.9,204.9,68.9z"/>
	<path class="st1" d="M204.9,112.2c-6.4,0-12.9-0.1-19.3,0c-1.8,0-2.6-0.3-2.4-2.3c0.2-2.3,0.1-4.7,0-7c0-1.2,0.4-1.6,1.6-1.6
		c13.5,0,26.9,0,40.4,0c1.3,0,1.6,0.5,1.5,1.7c-0.1,2.3-0.1,4.7,0,7c0.1,1.8-0.5,2.2-2.2,2.2C218,112.1,211.5,112.2,204.9,112.2
		C204.9,112.2,204.9,112.2,204.9,112.2z"/>
	<path class="st1" d="M204.7,198.8c-6.4,0-12.7-0.1-19.1,0c-1.8,0-2.5-0.5-2.4-2.4c0.1-2.3,0.1-4.7,0-7c0-1.2,0.4-1.6,1.6-1.6
		c13.5,0,26.9,0,40.4,0c1.3,0,1.5,0.6,1.5,1.7c0,2.4-0.1,4.9,0,7.3c0.1,1.7-0.7,2-2.2,2C217.9,198.8,211.3,198.8,204.7,198.8z"/>
	<path class="st1" d="M183.2,41.6c0-5.3,0-5.3,5.4-5.3c5.6,0,5.6,0,5.6,5.7c0,5.3,0,5.3-5.4,5.3C183.2,47.3,183.2,47.3,183.2,41.6z"
		/>
	<path class="st1" d="M145.2,36.3c5.7,0,5.7,0,5.8,5.8c0.1,5.3,0.1,5.3-5.2,5.2c-5.8-0.1-5.8-0.1-5.8-5.8
		C139.9,36.3,139.9,36.3,145.2,36.3z"/>
	<path class="st1" d="M167.2,47.3c-5.5,0-5.5,0-5.5-5.5c0-5.6,0-5.6,5.7-5.6c5.2,0.1,5.2,0.1,5.2,5.3c0,0.2,0,0.4,0,0.6
		C172.5,47.3,172.5,47.3,167.2,47.3z"/>
	<path class="st2" d="M91.7,196.1c-14.8,0-29.6,0.1-44.5,0.1c-1.9,0-3.7,0-5.6,0c0-6.2-0.1-12.4,0-18.7c0-2.1-0.5-2.8-2.6-2.6
		c-2.8,0.2-5.6,0.1-8.4,0.1c-4.5-0.1-9-0.2-13.6-0.3c-0.1-4-0.2-8-0.2-12c0-13.9-0.1-27.9,0-41.8C17,110.1,21.7,102,31.4,97
		c5.2-2.7,10.8-2.5,16.4-2.2c5.7,5.8,11.4,11.5,17,17.3c1.2,1.2,1.9,1.3,3.1,0.1c5.9-5.8,11.8-11.6,17.8-17.4
		c5.6,0.8,11.5-0.3,16.8,2.5c8.3,4.5,13.4,11.5,13.6,20.7c0.5,18.9,0,37.9,0,56.8c-4.5,0.1-9,0.1-13.4,0.2c-2.8,0-5.6,0-8.4-0.1
		c-1.8-0.1-2.2,0.6-2.2,2.2c0,5.2,0,10.4-0.1,15.6C92,193.9,92.2,195,91.7,196.1z M66.6,156.4c5.3,0,5.3,0,5.3-5.2
		c0-5.4,0-5.4-5.4-5.4c-5.3,0-5.3,0-5.3,5.2C61.2,156.4,61.2,156.4,66.6,156.4z M66.5,134.5c5.4,0,5.4,0,5.4-5.3c0-0.1,0-0.2,0-0.3
		c0-5.1,0-5.1-5.1-5.1c-5.5,0-5.5,0-5.5,5.5C61.2,134.5,61.2,134.5,66.5,134.5z"/>
	<path class="st0" d="M85.8,94.8c-5.9,5.8-11.9,11.5-17.8,17.4c-1.2,1.2-1.9,1.1-3.1-0.1c-5.6-5.8-11.3-11.6-17-17.3
		C60.5,94.6,73.1,94.5,85.8,94.8z"/>
	<path class="st1" d="M161.7,74.2c0,5.4,0,5.4-5.4,5.4c-5.3,0-5.3,0-5.3-5.2c0-5.5,0-5.5,5.5-5.5C161.7,68.9,161.7,68.9,161.7,74.2z
		"/>
	<path class="st1" d="M156.4,112.1c5.3,0,5.3,0,5.3,5.2c0,5.5,0,5.5-5.4,5.5c-5.3,0-5.3,0-5.3-5.2C151,112.1,151,112.1,156.4,112.1z
		"/>
	<path class="st1" d="M161.7,160.8c0,5.5,0,5.5-5.6,5.5c-5.1,0-5.1,0-5.1-5.2c0-5.8,0-5.8,5.6-5.8
		C161.7,155.4,161.7,155.4,161.7,160.8z"/>
	<path class="st1" d="M66.6,156.4c-5.4,0-5.4,0-5.4-5.4c0-5.2,0-5.2,5.3-5.2c5.4,0,5.4,0,5.4,5.4C71.9,156.4,71.9,156.4,66.6,156.4z
		"/>
	<path class="st1" d="M66.5,134.5c-5.3,0-5.3,0-5.3-5.2c0-5.5,0-5.5,5.5-5.5c5.1,0,5.1,0,5.1,5.1c0,0.1,0,0.2,0,0.3
		C71.9,134.5,71.9,134.5,66.5,134.5z"/>
</g>
</svg>
