<?xml version="1.0" encoding="utf-8"?>
<!-- Generator: Adobe Illustrator 19.2.1, SVG Export Plug-In . SVG Version: 6.00 Build 0)  -->
<svg version="1.1" id="Layer_1" xmlns="http://www.w3.org/2000/svg" xmlns:xlink="http://www.w3.org/1999/xlink" x="0px" y="0px"
	 viewBox="0 0 150 150" style="enable-background:new 0 0 150 150;" xml:space="preserve">
<style type="text/css">
	.st0{fill:#9BC13C;}
	.st1{fill:#9DC341;}
</style>
<g>
	<g>
		<path class="st0" d="M74.9,42c0.4-0.5,0.7-0.9,1.1-1.4c0.9-1.2,1.8-2.3,2.7-3.5c0.3-0.2,0.6-0.3,0.9-0.5c0.7,0.2,1.3,0.3,2,0.5
			c0.8,3-0.1,6.1,0.2,9.1c0.1,1.4,0,2.8,1,4c0.1,1.1,0.8,1.9,1.5,2.6c0.5,2.8,2.3,4.9,3.7,7.2c4.6,7.7,3.4,14.6-2,21.3
			c-2.7,3.4-6,6.1-9.7,8.4c-1.9,1.2-3.6,1.4-3.7-1.5c-0.1-1.1-0.5-1.3-1.4-1.9c-6.1-3.5-9.2-11.7-5.5-17.5c3.1-4.9,3.6-9.8,3.8-15.1
			c0.5-1.8,1.1-3.6,1.6-5.4c0.5-1,1-2,1.6-3C73.5,44.3,74.2,43.2,74.9,42z M69.9,79.3c0.7-5.3,1.6-10.1,5.9-13.1
			c2.8-2,4.3-1.3,4.6,2.1c0.4,4.1,0.6,8.3-0.4,12.4c0.5,0,1,0.2,1.3,0c5-3.4,7-10.8,4.4-16.3c-2.8-5.9-7-11.1-8.2-18.3
			c-3,4.3-4.5,8.4-4.3,13c0.2,3.7-0.7,6.8-3,9.8C68,71.8,67.1,75.2,69.9,79.3z M76.3,71.7c-2.2,3.7-2.7,7.7-2.4,11.9
			C76.7,80.1,77.3,76.1,76.3,71.7z"/>
	</g>
	<g>
		<path d="M107.2,72.5c0.4,17.7,0.8,35.3,1.2,53c0.1,2.4-0.3,4.6-3.1,5.3c-17,3.7-34.1,5.9-51.5,3.2c-0.5-0.1-0.9-0.2-1.4-0.3
			c-8.4-2-8.6-2-8.5-10.6c0.5-32.2-2.2-64.3-1.7-96.4c0.1-11.2-0.6-11.6,11.8-11.6c11.7,0,23.5,0.2,35.2-0.1
			c3.9-0.1,7.8-0.1,11.7-0.6c4.4-0.5,5.1,0.1,5.2,4.5c0.3,9,0.6,18,0.7,27c0.1,8.9,0,17.8,0,26.7C107,72.5,107.1,72.5,107.2,72.5z
			 M94,22.5c-2.2-1.2-2.4-4.5-5.4-4.7c0.1,1.9,2,2.8,1.5,4.6c-2.3-0.5-2.1-4.3-5.1-3.9c0,1.5,1.8,2.3,1,3.8
			c-2.1-0.6-2.3-3.9-5.1-3.9c0.2,1.6,1.9,2.4,1.3,4.1c-2.3-0.8-2.4-4.3-5.2-4.2c-0.3,1.7,2.2,2.4,1.2,4.1c-2.1-0.9-2.6-3.8-5.1-4.1
			c-0.4,1.6,2,2.4,0.9,4c-2-0.7-2.2-3.5-4.6-3.8c-0.2,1.6,1.8,2.4,1,4c-2-1-2.6-3.9-5.2-4.2c-0.2,1.8,1.9,2.5,1.2,4.2
			c-2.2-0.9-2.9-4-5.7-4.2c0.1,2,2.2,2.4,1.8,4.2c-2.6-0.9-3.6-4-6.5-4.5c0.7,1.6,2.5,2.1,2.5,4.1c-2.2-0.8-3.2-3.1-5.4-3.6
			c-0.2,1.4,1.8,1.8,0.9,3.3c-2-0.7-2.8-3.2-5.4-3.4c0.7,3.2,1.2,6.3,1.4,9.5c1.2,25.8,1.2,51.7,1.9,77.5c0.1,2.6,0.7,4,3.5,3.9
			c2.6-0.1,5.4,0.6,5.5-3.6c0.1-3.7,2.2-5.4,5.9-5.6c6.1-0.4,12.1-0.4,18.1,0.1c2.5,0.2,3.9,1.3,4.6,3.7c1.4,5,2.1,5.3,7.4,4.9
			c2-0.2,3.1-1,3-3.1c-0.1-2.8-0.1-5.7-0.1-8.5c-0.4-24.9-1.3-49.8,0.1-74.6c0.1-2.1-0.6-3.5-2.7-4.2c-0.5,1.7,1.7,2.6,0.9,4.1
			c-2.4-0.8-2.4-4.6-5.6-4.6C92.6,19.6,94.4,20.5,94,22.5z M102.6,20.6c-1.9,3.1-1.9,5.5-1.9,8c0.2,24.6,0.4,49.1,0.6,73.7
			c0,7.9,1.7,8-7.7,7.9c-2.7,0-4,0.7-3.9,3.6c0.1,3.2-1.5,5-4.9,5.3c-6.5,0.7-13,0.7-19.5-0.1c-1.9-0.2-3.5-1-3.6-2.8
			c-0.1-4.9-2.8-5.9-7-5.3c-2.7,0.4-3.9-1-3.9-3.7c-0.1-4.3-0.5-8.5-0.5-12.8c-0.1-22.2-0.8-44.4-1.6-66.5c-0.1-2.3-0.5-4.5-2.6-6.2
			c-0.5,3.1-0.4,6.1-0.5,9.1c-0.2,26.5,2.1,52.9,1.5,79.3c-0.1,5.7,1.6,11,2.3,16.5c0.2,1.6,1.2,3.1,3,3.6c0.9-0.8-1.1-1.9,0.4-2.7
			c1.7,1.1,2,4,4.6,4.1c0.2-1.6-1.6-2.4-0.8-4c2.2,1,2.4,4.4,5.3,4.7c0-1.8-2.1-2.7-1.4-4.8c2.2,1.2,2.5,4.7,5.7,4.8
			c-0.2-1.8-2.4-2.7-1.7-4.7c2.2,1,2.6,4.2,5.5,4.5c-0.3-1.9-2.3-2.8-1.8-4.8c2.4,1.3,2.8,4.9,6.1,5c-0.1-1.9-2.5-2.7-1.9-4.9
			c2.3,1.5,3.2,4.3,6.1,4.9c-0.4-2-2.4-2.9-2.3-5c2.4,1,3.1,4.1,5.9,4.4c-0.2-1.9-2.3-2.8-1.9-4.9c2.3,1.3,3.1,4.5,6.3,4.9
			c-0.3-2-2.7-2.7-2.3-4.9c2.5,1,3.2,4.3,6.3,4.4c-0.1-2.2-2.9-2.7-2.5-4.9c2.7,0.6,3.3,4.3,6.6,4c-0.7-1.8-3-2.2-3-4.5
			c2.5,0.8,3.7,3.5,6.3,4c-0.1-1.7-2.2-2.3-1.8-4.2c1.9,1.1,2.9,3.1,5,3.6c0.4-1.5-1.5-2.3-0.8-3.8c1.7,0.3,1.8,2.5,4.6,3
			c-2.9-4.3,0.1-7.8-0.1-11.6c-1-16.2-0.7-32.5-1.1-48.7C103.3,52.5,103.8,37,102.6,20.6z M75.5,117.4c2,0,4,0.1,6,0
			c4.4-0.1,4.9-0.6,4.9-4.9c0-2.3,0-4.5,0-6.8c0-1.7-0.6-3.1-2.5-3.3c-5.8-0.7-11.6-1-17.4,0c-1.5,0.3-2.4,1-2.4,2.6
			c0.1,12.2-1.8,12.7,10.6,12.4C75,117.4,75.3,117.4,75.5,117.4z"/>
	</g>
	<path class="st1" d="M77,114.2c-0.8,0-1.6-0.1-2.3,0c-3,0.2-4.6-0.8-4.5-4.2c0.2-3.2,0.7-5.4,4.6-5c1.4,0.2,2.9,0.1,4.3,0
		c3-0.2,4.2,1,4.2,4.1C83.3,114.2,83.5,114.2,77,114.2z"/>
</g>
</svg>
