<?xml version="1.0" encoding="utf-8"?>
<!-- Generator: Adobe Illustrator 19.2.1, SVG Export Plug-In . SVG Version: 6.00 Build 0)  -->
<svg version="1.1" id="Layer_1" xmlns="http://www.w3.org/2000/svg" xmlns:xlink="http://www.w3.org/1999/xlink" x="0px" y="0px"
	 viewBox="0 0 150 150" style="enable-background:new 0 0 150 150;" xml:space="preserve">
<style type="text/css">
	.st0{stroke:#000000;stroke-width:0.75;stroke-miterlimit:10;}
</style>
<g>
	<path d="M76.4,33.3c-1-2.5-1.9-5-2.9-7.4c-1.8-4.5-0.4-9.2,3.4-11.8c3.9-2.6,9.1-2.5,12.2,1.1c2.3,2.8,3.9,2.6,6.8,1
		c6.3-3.4,13.3-1.7,18.2,4.1c1.3,1.6,2.2,1.8,4,0.7c2.8-1.7,5.4-3.8,8.6-4.9c5.5-1.9,10.4-0.7,13,3.3c2.7,4.3,1.9,8.7-2.5,13
		c-5.6,5.4-11.2,10.8-16.8,16.2c-1.2,0.7-2.2,1.6-3,2.8c-5.6,6.5-11.4,12.9-16.4,19.8c-1,0.8-2,1.7-2.3,3.1
		c-1.7,1.3-3.5,2.6-5.2,3.8c-1.6,0.4-3.1,0.9-4.7,1.3c-6.6,0.9-13.1,1.9-19.7,2.8c-2.6,0.4-5.1,0.8-6.5,3.4
		c-1.2,0.5-2.2,1.4-2.9,2.5c-3.3,1.9-5.3,4.7-6.5,8.5c-3.7,11-7.7,21.9-11.8,32.7c-1.8,4.8-5.7,6.9-10.5,6.6c-4.1-0.3-7.6-3.1-9-7.2
		c-0.9-2.7-0.7-5.3,0.6-7.8c1.1-2.3,2.3-4.5,3.5-6.7c-0.9-1-1.8-0.5-2.6-0.4c-4.8,0.8-8.9-1-11.1-4.9c-2.4-4.2-2-8.5,1.4-12.4
		C20,89.5,26.5,82.4,33,75.4c3.3-3.5,5.5-8,10-10.5c2.9-1.6,5.6-2.7,9-2.5c4.1,0.2,8.2-0.1,12.3-0.2c2.3-0.3,5,1.1,6.8-1.4
		c2.3-4.4,4.4-8.9,6.9-13.2c2.1-3.5,2.1-6.6,0-10C77.5,36.2,76.9,34.7,76.4,33.3z M87.1,20.3c0.5,0.9,0.9,1.7,1.4,2.6
		c0.3-0.2,0.7-0.4,0.8-0.7c0.7-1.5-0.8-1.8-1.4-2.6c-3-3.5-5.7-4.3-8.5-2.5c-3,1.8-3.4,4.5-1.6,8.7c1.9,4.7,3.6,9.5,5.5,14.3
		c1,2.3,0.9,4.2-0.4,6.5c-2.7,5-5.4,10.1-7.7,15.4c-1.4,3.1-3.6,4.1-6.5,4.2c-5.7,0.2-11.5,0.4-17.3,0.3c-2.1,0-3.9,0.5-5.8,1.5
		c-3.1,1.6-5,4.3-7.1,6.8c-6.8,8.3-14.2,16.1-21.6,23.9c-3.2,3.4-3.2,7.2-0.3,9.8c2.9,2.7,7.3,2.2,10-1.4
		c4.1-5.4,8.5-10.6,11.2-16.9c1.5-3.5,3.5-6.5,6.2-9.1c1.5-1.4,2.9-2.9,3.9-4.7c1.5-2.6,3.1-2.9,5.9-1.9c5.5,2.1,10.8,5,17.2,3.7
		c5.1-1,10.4-1.5,15.5-2.5c3.2-0.6,6.6-1.3,8.8-4.2c11.6-15.4,24.8-29.2,39-42.1c2.5-2.3,3.9-4.9,1.9-8.1c-2.1-3.2-5.4-2.9-8.2-1.6
		c-3.4,1.5-6.4,3.6-9.7,5.4c-1.4,0.8-1.3,1.8-0.7,3.4c2.2-1.6,4.1-3.3,6.3-4.6c1.7-1,3.6-4.5,5.6-1.6c1.8,2.5-1.8,3.3-3.3,4.6
		c-4.4,3.8-10.7,5.3-14,10.5c-4.3,3.9-7.4,7.7-13.3,6.3c-5.6-1.3-9.4-4.7-10.8-10.2c-0.9-3.6-1.9-7.1-3.9-10.2
		c-0.7-1-1.2-2.1-0.3-3.1C84.9,19.2,86,19.8,87.1,20.3z M60.3,81.6c-7.2-3.8-8.3-3.4-13,3c-8.7,11.8-14.2,25.3-21.3,37.9
		c-1,1.7-1.2,3.6-0.3,5.5c1.1,2.6,3.1,4,5.9,4.1c3.2,0.1,5.4-1.7,6.4-4.5c3.4-9.1,6.9-18.1,9.8-27.3c2.2-6.8,4.9-13,11.2-17
		C59.6,82.9,60.3,82.5,60.3,81.6z M102.4,18.5c-6.1,0-11.1,4.8-11.2,10.8c-0.1,5.9,3.2,12.2,9.2,12.1c6.1-0.1,11.3-6.3,12.9-12.1
		C113.4,23.3,108.6,18.5,102.4,18.5z"/>
	<path class="st0" d="M88.8,79.5c1.6-0.4,3.1-0.9,4.7-1.3c2.7,1.4,5.4,2.8,8.1,4.2c1.9,1,2.8,2.5,2.7,4.7c-0.1,2.3-1.8,2.9-3.5,3.5
		c-8.1,2.6-16.3,5.1-24.4,7.8c-1.9,0.6-3.4,0.2-4.9-1c-3.9-3.1-7.8-6.1-11.8-9.1c0.7-1.1,1.7-1.9,2.9-2.5c3.3,2.5,6.7,5.1,10,7.6
		c0.9,0.7,1.8,1.5,3.1,1.1c8.2-2.6,16.3-5.2,25.2-8C96.4,84,92.6,81.7,88.8,79.5z"/>
	<path d="M98.7,74.4c0.4-1.3,1.3-2.3,2.3-3.1c2.3,0.8,4.6,1.5,6.8,2.3c1.2,0.4,2.3,0.5,2.7-1c2.1-7.1,5.5-13.8,6.8-21.1
		c0.8-1.2,1.7-2.1,3-2.8c1.3,1.5,1.5,3,0.9,4.9c-2.7,7.4-5.2,14.9-7.7,22.4c-0.8,2.4-2.1,2.9-4.3,2C105.7,76.7,102.2,75.6,98.7,74.4
		z"/>
	<path d="M71.1,60.8c-1.9,2.5-4.5,1.1-6.8,1.4c-0.7-1.3-0.1-2.5,0.3-3.7c2.4-7.1,5-14.2,7.4-21.3c0.8-2.3,2.1-3.7,4.5-4
		c0.5,1.5,1.1,3,1.6,4.4c-2.3-1.3-2.5,0.6-2.9,2C73,45.5,71.1,51.3,69,57C68,59.4,68.5,60.6,71.1,60.8z"/>
	<g>
		<path class="st0" d="M107.5,29.6c0.6,0.3,1.1,0.6,1.7,0.9c0.2,0.1,0.4,0.2,0.7,0.3c-0.2,0.4-0.3,0.7-0.4,1c-1-0.3-1-0.3-1.5,0.7
			c-0.8,1.9-2,3.5-3.9,4.4c-3.6,1.8-8.5,0.3-9.8-4.4c-0.1-0.3-0.2-0.6-0.3-0.9c-0.3,0.1-0.5,0.2-0.8,0.3c-0.5-0.7-0.4-0.8,0.3-1.2
			c0.6-0.3,1.2-0.6,1.9-1c0.1,0.3,0.2,0.6,0.3,0.9c0,0.1-0.1,0.1-0.1,0.1c-0.8,0.4-0.8,0.4-0.5,1.3c0.5,1.5,1.3,2.8,2.7,3.6
			c2.5,1.5,5.5,1.1,7.4-1.1c0.7-0.9,1.3-1.9,1.9-2.8c0.3-0.5,0.2-0.8-0.4-1c-0.1,0-0.2-0.1-0.3-0.2c0.1-0.3,0.3-0.6,0.4-0.9
			C107.1,29.6,107.3,29.6,107.5,29.6z"/>
	</g>
	<path d="M104.7,87.5c-1.7-0.6-2.6-3.2-4.9-2.7c0.1,1.4,1.9,1.8,1.5,3.4c-2.2-0.5-3-3.4-5.6-3.1c0.3,1.6,2.4,2,2.2,3.9
		c-2.2-0.6-3.1-3.6-5.9-3.1c0.6,1.6,2.6,1.9,2.4,3.9c-2.1-0.5-3.1-3.2-5.7-2.9c0.6,1.6,2.6,2,2.5,3.9c-2.4-0.7-3.4-3.7-6.3-3.2
		c0.5,1.7,2.7,1.9,2.6,3.9c-2.3-0.8-3.6-3.2-6.3-3.1c0.8,1.6,2.6,2.1,3,3.9c-2.3-0.4-3.5-3-6-2.8c0.6,1.7,2.6,2,2.6,3.9
		c-2.3-0.7-3.6-3.4-6.5-3.1c0.6,1.7,2.9,1.8,3,3.9c-2.4-0.4-3.7-3.2-6.5-2.6c0.5,1.9,3.1,1.9,3.1,3.8c-2.5,0-3.7-3.2-6.6-2.2
		c1,1.4,3,1.4,3.5,3.3"/>
	<path d="M63.8,66"/>
	<path d="M62.3,68.9"/>
</g>
</svg>
